 ######## ######## ######## ##          ######## ########  ######## ######## 
 ##       ##       ##       ##          ##       ##     ## ##       ##       
 ##       ##       ##       ##          ##       ##     ## ##       ##       
 ######   ######   ######   ##          ######   ########  ######   ######   
 ##       ##       ##       ##          ##       ##   ##   ##       ##       
 ##       ##       ##       ##          ##       ##    ##  ##       ##       
 ##       ######## ######## ########    ##       ##     ## ######## ######## 

 Genre:Action | Horror | Sci-Fi 
 Language:English
 IMDb:  http://www.imdb.com/title/tt0822847/
 Source:KINOPARK PROPER/AUDIO:IMAGINE Thanks!

 Format : MPEG-4
 Format profile : Base Media
 Codec ID : isom
 File size : 942 MiB
 Duration : 1h 20mn
 Overall bit rate : 1 643 Kbps

 Video
 Format profile : High@L4.1
 Format settings, CABAC : Yes
 Format settings, ReFrames : 3 frames
 Codec ID : avc1
 Codec ID/Info : Advanced Video Coding
 Duration : 1h 20mn
 Bit rate mode : Variable
 Bit rate : 1 413 Kbps
 Maximum bit rate : 4 560 Kbps
 Width : 720 pixels
 Height : 336 pixels
 Display aspect ratio : 2.2:1
 Frame rate mode : Constant
 Frame rate : 25.000 fps
 Color space : YUV
 Chroma subsampling : 4:2:0
 Bit depth : 8 bits
 Scan type : Progressive
 Bits/(Pixel*Frame) : 0.234
 Stream size : 811 MiB (86%)
 Writing library : x264

 Audio
 ID : 2
 Format : AAC
 Format/Info : Advanced Audio Codec
 Format version : Version 4
 Format profile : LC
 Format settings, SBR : No
 Codec ID : 40
 Duration : 1h 20mn
 Bit rate mode : Variable
 Bit rate : 224 Kbps
 Maximum bit rate : 286 Kbps
 Channel(s) : 2 channels
 Channel positions : Front: L R
 Sampling rate : 44.1 KHz
 Stream size : 128 MiB (14%)


 Plot:
 A priest disobeys church law to track down the vampires who kidnapped his niece.

 ######## ######## ######## ##          ######## ########  ######## ######## 
 ##       ##       ##       ##          ##       ##     ## ##       ##       
 ##       ##       ##       ##          ##       ##     ## ##       ##       
 ######   ######   ######   ##          ######   ########  ######   ######   
 ##       ##       ##       ##          ##       ##   ##   ##       ##       
 ##       ##       ##       ##          ##       ##    ##  ##       ##       
 ##       ######## ######## ########    ##       ##     ## ######## ######## 